<svg xmlns="http://www.w3.org/2000/svg" fill="#ffffff" viewBox="0 0 24 24">
  <path d="M12 2.163c3.204 0 3.584.012 
  4.85.07 1.17.056 1.97.24 2.427.405a4.9 
  4.9 0 0 1 1.77 1.145 4.9 4.9 0 0 1 1.145 
  1.77c.165.457.349 1.257.405 
  2.427.058 1.266.07 1.646.07 
  4.85s-.012 3.584-.07 4.85c-.056 
  1.17-.24 1.97-.405 2.427a4.9 
  4.9 0 0 1-1.145 1.77 4.9 4.9 
  0 0 1-1.77 1.145c-.457.165-1.257.349-2.427.405-1.266.058-1.646.07-4.85.07s-3.584-.012-4.85-.07c-1.17-.056-1.97-.24-2.427-.405a4.9 
  4.9 0 0 1-1.77-1.145 4.9 4.9 
  0 0 1-1.145-1.77c-.165-.457-.349-1.257-.405-2.427C2.175 
  15.584 2.163 15.204 2.163 12s.012-3.584.07-4.85c.056-1.17.24-1.97.405-2.427a4.9 
  4.9 0 0 1 1.145-1.77 4.9 4.9 
  0 0 1 1.77-1.145c.457-.165 1.257-.349 
  2.427-.405C8.416 2.175 8.796 2.163 
  12 2.163zm0 1.837c-3.17 0-3.548.012-4.796.07-1.013.047-1.562.216-1.926.36-.485.188-.83.414-1.194.778-.364.364-.59.709-.778 
  1.194-.144.364-.313.913-.36 
  1.926-.058 1.248-.07 1.626-.07 
  4.796s.012 3.548.07 4.796c.047 
  1.013.216 1.562.36 1.926.188.485.414.83.778 
  1.194.364.364.709.59 1.194.778.364.144.913.313 
  1.926.36 1.248.058 1.626.07 
  4.796.07s3.548-.012 4.796-.07c1.013-.047 
  1.562-.216 1.926-.36.485-.188.83-.414 
  1.194-.778.364-.364.59-.709.778-1.194.144-.364.313-.913.36-1.926.058-1.248.07-1.626.07-4.796s-.012-3.548-.07-4.796c-.047-1.013-.216-1.562-.36-1.926a3.11 
  3.11 0 0 0-.778-1.194 3.11 3.11 0 0 0-1.194-.778c-.364-.144-.913-.313-1.926-.36-1.248-.058-1.626-.07-4.796-.07zm0 
  3.905a5.932 5.932 0 1 1 0 11.864 5.932 
  5.932 0 0 1 0-11.864zm0 
  9.8a3.868 3.868 0 1 0 0-7.736 3.868 
  3.868 0 0 0 0 7.736zm6.406-10.845a1.386 
  1.386 0 1 1 0-2.772 1.386 
  1.386 0 0 1 0 2.772z"></path>
</svg>
